<svg width="512" height="513" viewBox="0 0 512 513" fill="none" xmlns="http://www.w3.org/2000/svg">
<path d="M154.448 172.042C181.323 170.908 206.465 178.919 226.641 197.2C241.329 211.471 250.467 229.875 255.081 249.704C256.892 246.363 258.183 242.906 259.459 239.333C267.4 217.205 280.325 199.158 301.022 187.356C301.848 186.863 302.675 186.368 303.526 185.86C317.164 178.315 333.643 175.084 349.081 175.256C349.934 175.26 350.786 175.265 351.664 175.27C353.743 175.283 355.822 175.303 357.901 175.324C359.629 198.513 352.256 224.567 338.211 243.141C325.264 257.017 302.497 259.781 284.614 260.642C284.895 248.249 293.762 238.89 302.21 230.734C303.627 229.391 305.058 228.061 306.491 226.734C285.889 238.252 270.86 257.522 264.311 280.277C263.514 283.999 263.699 287.771 263.724 291.56C263.726 292.428 263.727 293.296 263.729 294.19C263.735 296.954 263.749 299.717 263.763 302.481C263.769 304.358 263.773 306.236 263.778 308.113C263.79 312.708 263.809 317.303 263.831 321.897C264.484 321.016 265.136 320.135 265.809 319.227C266.686 318.049 267.564 316.871 268.442 315.693C269.298 314.541 270.153 313.389 271.035 312.203C274.925 307.147 279.154 302.477 283.52 297.833C284.138 297.132 284.756 296.431 285.392 295.709C312.455 266.381 360.303 247.281 399.788 245.196C402.484 245.089 405.177 245.027 407.875 244.987C409.154 244.958 409.154 244.957 410.458 244.927C416.336 244.936 416.336 244.936 418.834 246.488C420.981 249.707 420.73 252.961 420.722 256.704C420.733 257.532 420.745 258.361 420.756 259.215C420.79 261.988 420.799 264.761 420.809 267.534C420.828 269.504 420.848 271.475 420.87 273.446C420.923 278.762 420.955 284.079 420.983 289.395C421.008 293.799 421.043 298.204 421.079 302.608C421.168 313.804 421.235 325.001 421.29 336.198C421.327 343.46 421.376 350.722 421.433 357.984C421.504 366.992 421.558 376 421.594 385.008C421.608 388.32 421.628 391.633 421.654 394.945C421.689 399.52 421.697 404.094 421.702 408.669C421.715 410.006 421.729 411.344 421.743 412.722L421.733 416.424C421.737 417.479 421.741 418.533 421.746 419.62C421.261 423.13 420.184 425.178 418.062 427.999C414.713 429.115 411.884 429.223 408.382 429.298C366.75 430.377 322.322 448.672 291.177 476.127C292.153 475.716 292.153 475.716 293.149 475.297C335.388 457.642 380.454 443.108 426.684 443.291C427.813 443.293 427.813 443.293 428.964 443.296C430.799 443.3 432.634 443.306 434.469 443.312C434.467 442.572 434.464 441.831 434.461 441.068C434.43 431.106 434.412 421.143 434.401 411.18C434.4 410.355 434.399 409.53 434.398 408.68C434.366 376.696 434.64 344.718 435.016 312.736C435.036 311.069 435.036 311.069 435.056 309.368C435.218 295.678 435.387 281.989 435.563 268.3C437.681 268.181 439.801 268.096 441.921 268.026C443.101 267.975 444.282 267.924 445.497 267.872C448.689 268.299 448.689 268.299 450.502 270.044C452.471 273.573 452.387 276.159 452.395 280.196C452.404 281.33 452.404 281.331 452.413 282.488C452.428 285.022 452.42 287.555 452.413 290.089C452.419 291.905 452.426 293.721 452.435 295.538C452.455 300.471 452.454 305.405 452.448 310.339C452.444 314.454 452.451 318.57 452.457 322.685C452.473 332.391 452.471 342.098 452.458 351.804C452.446 361.827 452.461 371.849 452.491 381.871C452.515 390.47 452.522 399.069 452.515 407.669C452.511 412.807 452.515 417.945 452.534 423.084C452.551 427.913 452.546 432.743 452.526 437.572C452.522 439.347 452.525 441.121 452.537 442.896C452.551 445.314 452.538 447.731 452.519 450.149C452.519 451.504 452.518 452.858 452.518 454.254C451.971 457.532 451.97 457.532 449.911 459.61C447.092 461.075 445.224 461.202 442.053 461.181C440.372 461.197 440.371 461.196 438.656 461.212C437.432 461.216 436.208 461.219 434.948 461.223C407.033 461.813 379.324 466.546 352.432 473.939C351.503 474.188 350.573 474.437 349.616 474.694C323.846 481.668 297.969 491.589 274.5 504.37C273.56 504.881 272.619 505.392 271.65 505.919C269.859 506.904 268.077 507.908 266.307 508.931C262.744 510.911 260.307 512.207 256.187 512.288C251.608 510.678 247.493 508.486 243.253 506.139C241.385 505.134 239.515 504.13 237.643 503.131C236.71 502.631 235.776 502.133 234.814 501.619C211.03 489.067 185.727 480.204 159.917 472.845C158.952 472.569 157.986 472.293 156.992 472.008C135.23 465.892 112.269 462.066 89.6469 461.754C88.2793 461.732 86.9115 461.711 85.5024 461.689C82.674 461.652 79.8447 461.632 77.0161 461.63C75.6571 461.603 74.2981 461.576 72.8979 461.549C71.0623 461.533 71.0616 461.533 69.1889 461.517C64.7077 460.573 63.2412 458.879 60.3784 455.344C59.7072 451.794 59.7069 451.793 59.725 447.691C59.721 446.934 59.7175 446.176 59.7133 445.396C59.7065 442.866 59.7385 440.337 59.7709 437.806C59.7743 435.99 59.775 434.173 59.7739 432.356C59.7782 427.427 59.8179 422.499 59.8647 417.57C59.9093 412.414 59.9267 407.257 59.9487 402.101C59.9901 393.445 60.0546 384.789 60.1323 376.133C60.2217 366.118 60.2717 356.104 60.3012 346.09C60.3276 337.495 60.3755 328.901 60.4409 320.306C60.4799 315.171 60.5113 310.036 60.5239 304.901C60.5369 300.076 60.5768 295.252 60.6372 290.427C60.6549 288.655 60.663 286.881 60.6616 285.108C60.6611 282.692 60.6941 280.279 60.7358 277.863C60.7459 276.51 60.7566 275.156 60.767 273.762C61.4723 270.487 61.4721 270.487 63.5688 268.385C66.941 267.206 66.9412 267.206 77.8793 267.206V443.312H103.038C144.047 447.57 182.226 459.101 220.078 475.033C188.914 447.532 145.397 431.049 104.094 428.785C103.144 428.726 102.193 428.666 101.213 428.605C100.376 428.566 99.5375 428.526 98.6743 428.485C95.7881 427.847 94.9639 427.088 93.1928 424.716C92.7629 421.572 92.763 421.572 92.7348 417.659C92.7252 416.939 92.7154 416.22 92.7055 415.478C92.6774 413.062 92.6733 410.646 92.6684 408.23C92.6532 406.5 92.6365 404.77 92.6186 403.04C92.5743 398.337 92.5507 393.634 92.5317 388.931C92.5092 384.015 92.4708 379.098 92.435 374.181C92.3776 365.924 92.3342 357.666 92.2983 349.409C92.2565 339.856 92.1904 330.303 92.1127 320.75C92.0467 312.555 91.994 304.359 91.9516 296.164C91.9262 291.266 91.8964 286.369 91.8549 281.471C91.8167 276.868 91.7943 272.264 91.7846 267.66C91.7784 265.968 91.7663 264.276 91.7485 262.584C91.7251 260.278 91.722 257.974 91.7241 255.669C91.7138 253.732 91.714 253.731 91.7036 251.756C92.0994 248.611 92.0989 248.61 93.6254 246.554C95.9053 244.962 97.3406 244.906 100.111 244.893C101.515 244.883 101.515 244.883 102.948 244.873C104.447 244.895 104.447 244.895 105.977 244.919C107.523 244.933 107.524 244.932 109.101 244.947C118.342 245.138 126.871 246.44 135.853 248.61C137.133 248.902 138.414 249.194 139.733 249.495C173.847 257.874 204.607 273.467 229.922 297.833C230.978 298.784 230.978 298.785 232.054 299.756C236.463 303.846 239.83 308.503 243.279 313.398C244.036 314.466 244.037 314.466 244.81 315.556C246.048 317.303 247.283 319.053 248.517 320.803C248.735 314.929 248.894 309.055 248.998 303.177C249.042 301.183 249.101 299.189 249.177 297.195C249.99 283.469 249.991 283.469 244.245 271.435C241.972 269.075 241.972 269.075 239.767 267.206C239.045 266.484 238.323 265.761 237.58 265.017C235.376 264.791 233.161 264.673 230.948 264.607C211.22 263.416 189.631 257.517 175.316 243.231C163.756 229.6 158.505 210.997 155.815 193.714C155.675 192.817 155.535 191.921 155.391 190.998C154.487 184.649 154.295 178.449 154.448 172.042ZM106.319 414.871C153.712 421.98 200.262 437.186 236.075 470.52C238.658 472.997 241.219 475.485 243.918 477.836C244.615 478.43 245.292 479.006 245.968 479.583C247.182 480.619 248.396 481.655 249.611 482.689C249.807 466.362 249.96 450.034 250.051 433.706C250.095 425.756 250.143 417.807 250.242 409.858C250.33 402.886 250.401 395.914 250.428 388.941C250.436 385.973 250.444 383.003 250.465 380.035C250.722 364.229 252.058 349.753 243.206 336.054C241.975 334.365 240.752 332.668 239.608 330.919C215.713 293.384 175.294 271.861 132.914 261.455C131.844 261.201 130.806 260.956 129.768 260.71C121.668 258.759 114.887 258.454 106.319 258.454V414.871ZM407.122 258.454C384.406 258.454 362.291 265.526 341.789 274.818C340.945 275.205 340.125 275.58 339.305 275.955C328.112 281.025 317.999 286.795 308.243 294.288C307.647 294.749 307.069 295.197 306.491 295.644C299.742 300.803 293.482 306.045 287.99 312.547C287.214 313.494 286.46 314.413 285.707 315.333C282.086 319.599 278.617 323.91 275.302 328.419C274.749 329.176 274.212 329.911 273.675 330.646C262.592 345.506 261.219 358.672 261.581 376.928C261.655 380.551 261.693 384.172 261.707 387.796C261.732 394.654 261.802 401.51 261.912 408.368C262.038 416.225 262.114 424.082 262.17 431.939C262.288 448.857 262.48 465.773 262.737 482.689C265.549 480.814 267.899 478.831 270.36 476.532C295.368 453.107 323.556 436.313 356.156 425.626C357.589 425.166 357.59 425.166 358.995 424.716C365.876 422.506 372.697 420.846 379.777 419.247C389.074 418.131 398.099 417.048 407.122 415.966V258.454Z" fill="#0760AE"/>
<path d="M273.77 107.23C274.461 107.681 275.152 108.132 275.864 108.597C276.622 109.049 277.381 109.5 278.162 109.965C286.244 115.292 290.818 123.446 293.365 132.662C294.656 145.328 292.416 155.667 284.435 165.673C276.934 173.11 267.428 176.716 256.995 176.825C245.895 176.651 236.863 173.269 228.829 165.477C220.379 155.187 218.962 144.646 220.078 131.568C221.021 127.876 222.424 124.935 224.454 121.723C224.917 120.962 225.381 120.2 225.859 119.416C235.792 104.697 257.78 98.3398 273.77 107.23Z" fill="#0760AE"/>
<path d="M409.312 86.7203C411.431 87.8824 411.431 87.8824 412.594 90.0017C412.504 93.6953 412.504 93.6953 411.5 97.6586C408.863 99.9918 408.863 99.9918 405.338 101.936C404.703 102.297 404.069 102.657 403.414 103.029C401.337 104.204 399.241 105.34 397.143 106.478C394.973 107.688 392.808 108.907 390.642 110.127C389.175 110.952 387.706 111.775 386.235 112.594C381.503 115.238 376.887 118.008 372.305 120.907C370.606 121.98 370.606 121.98 368.873 123.075C366.752 124.425 364.639 125.787 362.535 127.162C355.531 131.569 355.531 131.569 350.788 131.559C348.057 130.473 348.057 130.473 345.87 128.286C345.351 124.587 345.351 124.587 345.87 120.629C348.415 118.299 348.415 118.299 351.976 116.365C352.613 116.006 353.251 115.647 353.908 115.278C355.267 114.514 356.631 113.762 358.002 113.02C360.72 111.533 363.379 109.954 366.042 108.37C369.401 106.374 372.78 104.412 376.155 102.444C378.204 101.248 380.252 100.052 382.3 98.8546C383.622 98.0825 384.944 97.3112 386.266 96.5409C391.072 93.7353 395.821 90.8449 400.539 87.8939C403.646 86.244 405.887 85.9685 409.312 86.7203Z" fill="#0760AE"/>
<path d="M109.41 85.8195C113.177 86.7966 115.89 88.1811 119.215 90.194C120.416 90.9137 121.616 91.6333 122.853 92.3748C124.133 93.1559 125.413 93.9373 126.692 94.7189C128.008 95.5126 129.324 96.3054 130.64 97.0973C133.295 98.6962 135.947 100.301 138.597 101.909C142.101 104.035 145.621 106.134 149.146 108.225C151.118 109.397 153.091 110.569 155.064 111.742C155.973 112.281 156.883 112.82 157.82 113.375C158.649 113.871 159.478 114.367 160.332 114.878C161.408 115.518 161.408 115.518 162.505 116.172C164.293 117.348 164.293 117.348 166.48 119.535C166.842 122.93 167.033 125.177 165.25 128.149C162.237 129.957 160.116 129.675 156.636 129.38C153.427 127.881 153.427 127.881 150.064 125.773C149.452 125.396 148.84 125.018 148.21 124.629C146.224 123.4 144.252 122.152 142.279 120.902C140.913 120.051 139.545 119.202 138.176 118.354C135.426 116.648 132.679 114.937 129.935 113.222C123.537 109.235 117.04 105.409 110.549 101.576C109.726 101.085 108.903 100.595 108.054 100.09C106.989 99.4597 106.989 99.4597 105.903 98.8168C104.132 97.6586 104.132 97.6586 101.944 95.4709C102.149 91.6425 102.149 91.6425 103.038 87.8141C106.32 85.6264 106.32 85.6264 109.41 85.8195Z" fill="#0760AE"/>
<path d="M352.911 26.3555C356.808 26.5606 356.808 26.5606 358.996 28.7482C359.73 33.1081 359.029 35.6948 356.663 39.2892C355.588 40.7778 354.495 42.2541 353.39 43.72C352.516 44.9161 352.516 44.9161 351.624 46.1363C350.373 47.8446 349.114 49.5477 347.849 51.246C345.836 53.9515 343.844 56.6719 341.857 59.3968C325.065 82.3673 325.065 82.3673 321.805 85.6274C318.461 85.9182 316.108 86.1022 313.123 84.4652C311.24 81.0323 312.227 78.424 313.055 74.6891C315.016 71.5614 315.016 71.5614 317.635 68.3996C318.63 67.1683 319.623 65.9347 320.613 64.6994C321.153 64.0307 321.694 63.362 322.25 62.673C325.54 58.5126 328.653 54.2199 331.786 49.9412C332.441 49.0513 333.095 48.1614 333.768 47.2445C338.061 41.401 342.332 35.5424 346.575 29.6626C348.853 26.5768 348.853 26.5768 352.911 26.3555Z" fill="#0760AE"/>
<path d="M165.386 24.3719C167.813 26.8586 167.813 26.8586 170.309 30.2512C170.999 31.182 170.999 31.182 171.704 32.1315C177.011 39.3651 182.018 46.8164 187.037 54.2514C189.255 57.5238 191.524 60.7425 193.882 63.9164C194.393 64.6088 194.905 65.3012 195.433 66.0146C196.383 67.291 197.344 68.5597 198.317 69.819C200.311 72.5061 201.444 74.3625 201.846 77.7175C201.483 80.1572 201.483 80.1572 200.252 82.1398C197.057 84.1633 195.352 84.1669 191.638 83.4387C186.312 78.5965 182.414 72.0882 178.444 66.1425C172.808 57.793 167.01 49.582 161.066 41.4488C160.501 40.6738 159.936 39.8987 159.353 39.1001C158.854 38.419 158.354 37.7379 157.84 37.0361C155.346 33.4619 155.099 30.9029 155.542 26.5595C158.721 22.9097 160.943 22.8514 165.386 24.3719Z" fill="#0760AE"/>
<path d="M259.456 0.307936C261.275 1.61541 261.275 1.61541 262.737 3.58943C263.154 6.20437 263.154 6.20437 263.162 9.33204C263.172 10.5038 263.183 11.6755 263.193 12.8827C263.187 14.1475 263.18 15.4123 263.173 16.7154C263.178 18.6633 263.178 18.6633 263.183 20.6506C263.185 23.398 263.179 26.1454 263.165 28.8928C263.147 33.1062 263.165 37.3184 263.186 41.5317C263.184 44.1979 263.179 46.8641 263.173 49.5303C263.183 51.4275 263.183 51.4275 263.193 53.363C263.183 54.5347 263.172 55.7064 263.162 56.9137C263.159 57.9458 263.157 58.9779 263.154 60.0413C262.737 62.6563 262.737 62.6563 261.275 64.6303C258.447 66.6627 256.268 66.3597 252.893 65.9378C251.073 64.6303 251.073 64.6303 249.611 62.6563C249.195 60.0413 249.195 60.0413 249.187 56.9137C249.176 55.742 249.166 54.5702 249.155 53.363C249.162 52.0982 249.169 50.8334 249.175 49.5303C249.172 48.2317 249.169 46.9331 249.166 45.5951C249.164 42.8477 249.17 40.1003 249.183 37.3529C249.201 33.1396 249.184 28.9273 249.163 24.714C249.165 22.0478 249.169 19.3816 249.175 16.7154C249.169 15.4506 249.162 14.1858 249.155 12.8827C249.166 11.711 249.176 10.5393 249.187 9.33204C249.189 8.29991 249.192 7.26778 249.195 6.20437C249.611 3.58943 249.611 3.58943 251.073 1.61541C253.901 -0.416934 256.08 -0.113977 259.456 0.307936Z" fill="#0760AE"/>
</svg>
